<svg width="26" height="26" viewBox="0 0 26 26" fill="none" xmlns="http://www.w3.org/2000/svg">
<g id="attachment">
<mask id="mask0_349_1218" style="mask-type:alpha" maskUnits="userSpaceOnUse" x="0" y="0" width="26" height="26">
<rect id="Bounding box" y="26" width="26" height="26" transform="rotate(-90 0 26)" fill="#D9D9D9"/>
</mask>
<g mask="url(#mask0_349_1218)">
<path id="attachment_2" d="M18.9577 17.8752C18.9577 19.5363 18.3799 20.9446 17.2243 22.1002C16.0688 23.2557 14.6605 23.8335 12.9993 23.8335C11.3382 23.8335 9.9299 23.2557 8.77435 22.1002C7.61879 20.9446 7.04102 19.5363 7.04102 17.8752L7.04102 6.50016C7.04102 5.3085 7.46532 4.28836 8.31393 3.43975C9.16254 2.59114 10.1827 2.16683 11.3743 2.16683C12.566 2.16683 13.5862 2.59114 14.4348 3.43975C15.2834 4.28836 15.7077 5.3085 15.7077 6.50016L15.7077 16.7918C15.7077 17.5502 15.4459 18.1911 14.9223 18.7147C14.3987 19.2384 13.7577 19.5002 12.9993 19.5002C12.241 19.5002 11.6 19.2384 11.0764 18.7147C10.5528 18.1911 10.291 17.5502 10.291 16.7918V6.50016H11.916V16.7918C11.916 17.0988 12.0198 17.3561 12.2275 17.5637C12.4351 17.7713 12.6924 17.8752 12.9993 17.8752C13.3063 17.8752 13.5636 17.7713 13.7712 17.5637C13.9789 17.3561 14.0827 17.0988 14.0827 16.7918V6.50016C14.0827 5.74183 13.8209 5.10086 13.2973 4.57725C12.7737 4.05364 12.1327 3.79183 11.3743 3.79183C10.616 3.79183 9.97504 4.05364 9.45143 4.57725C8.92782 5.10086 8.66602 5.74183 8.66602 6.50016L8.66602 17.8752C8.66602 19.0668 9.09032 20.087 9.93893 20.9356C10.7875 21.7842 11.8077 22.2085 12.9993 22.2085C14.191 22.2085 15.2112 21.7842 16.0598 20.9356C16.9084 20.087 17.3327 19.0668 17.3327 17.8752V6.50016H18.9577V17.8752Z" fill="#696969"/>
</g>
</g>
</svg>
