<svg width="34" height="34" viewBox="0 0 34 34" fill="none" xmlns="http://www.w3.org/2000/svg">
<g id="call">
<mask id="mask0_584_4266" style="mask-type:alpha" maskUnits="userSpaceOnUse" x="0" y="0" width="34" height="34">
<rect id="Bounding box" width="34" height="34" fill="#D9D9D9"/>
</mask>
<g mask="url(#mask0_584_4266)">
<path id="call_2" d="M28.2625 29.75C25.2167 29.75 22.2476 29.0712 19.3552 27.7135C16.4628 26.3559 13.901 24.5615 11.6698 22.3302C9.43854 20.099 7.6441 17.5372 6.28646 14.6448C4.92882 11.7524 4.25 8.78333 4.25 5.7375C4.25 5.3125 4.39167 4.95833 4.675 4.675C4.95833 4.39167 5.3125 4.25 5.7375 4.25H11.475C11.8056 4.25 12.1007 4.35625 12.3604 4.56875C12.6201 4.78125 12.7736 5.05278 12.8208 5.38333L13.7417 10.3417C13.7889 10.6722 13.783 10.9733 13.724 11.2448C13.6649 11.5163 13.5292 11.7583 13.3167 11.9708L9.91667 15.4417C10.9083 17.1417 12.1479 18.7354 13.6354 20.2229C15.1229 21.7104 16.7639 22.9972 18.5583 24.0833L21.8875 20.7542C22.1 20.5417 22.3774 20.3823 22.7198 20.276C23.0622 20.1698 23.3986 20.1403 23.7292 20.1875L28.6167 21.1792C28.9472 21.25 29.2187 21.4094 29.4312 21.6573C29.6437 21.9052 29.75 22.1944 29.75 22.525V28.2625C29.75 28.6875 29.6083 29.0417 29.325 29.325C29.0417 29.6083 28.6875 29.75 28.2625 29.75Z" fill="#4A6DFF"/>
</g>
</g>
</svg>
