<svg width="34" height="34" viewBox="0 0 34 34" fill="none" xmlns="http://www.w3.org/2000/svg">
<g id="Group 6356941">
<g id="sms">
<mask id="mask0_584_4256" style="mask-type:alpha" maskUnits="userSpaceOnUse" x="0" y="0" width="34" height="34">
<rect id="Bounding box" width="34" height="34" fill="#D9D9D9"/>
</mask>
<g mask="url(#mask0_584_4256)">
<path id="sms_2" d="M11.334 15.584C11.7354 15.584 12.0718 15.4482 12.3434 15.1767C12.6149 14.9052 12.7507 14.5687 12.7507 14.1673C12.7507 13.7659 12.6149 13.4295 12.3434 13.1579C12.0718 12.8864 11.7354 12.7507 11.334 12.7507C10.9326 12.7507 10.5961 12.8864 10.3246 13.1579C10.0531 13.4295 9.91732 13.7659 9.91732 14.1673C9.91732 14.5687 10.0531 14.9052 10.3246 15.1767C10.5961 15.4482 10.9326 15.584 11.334 15.584ZM17.0007 15.584C17.402 15.584 17.7385 15.4482 18.01 15.1767C18.2816 14.9052 18.4173 14.5687 18.4173 14.1673C18.4173 13.7659 18.2816 13.4295 18.01 13.1579C17.7385 12.8864 17.402 12.7507 17.0007 12.7507C16.5993 12.7507 16.2628 12.8864 15.9913 13.1579C15.7197 13.4295 15.584 13.7659 15.584 14.1673C15.584 14.5687 15.7197 14.9052 15.9913 15.1767C16.2628 15.4482 16.5993 15.584 17.0007 15.584ZM22.6673 15.584C23.0687 15.584 23.4052 15.4482 23.6767 15.1767C23.9482 14.9052 24.084 14.5687 24.084 14.1673C24.084 13.7659 23.9482 13.4295 23.6767 13.1579C23.4052 12.8864 23.0687 12.7507 22.6673 12.7507C22.2659 12.7507 21.9295 12.8864 21.6579 13.1579C21.3864 13.4295 21.2507 13.7659 21.2507 14.1673C21.2507 14.5687 21.3864 14.9052 21.6579 15.1767C21.9295 15.4482 22.2659 15.584 22.6673 15.584ZM2.83398 31.1673V5.66732C2.83398 4.88815 3.11141 4.22114 3.66628 3.66628C4.22114 3.11141 4.88815 2.83398 5.66732 2.83398H28.334C29.1131 2.83398 29.7802 3.11141 30.335 3.66628C30.8899 4.22114 31.1673 4.88815 31.1673 5.66732V22.6673C31.1673 23.4465 30.8899 24.1135 30.335 24.6684C29.7802 25.2232 29.1131 25.5007 28.334 25.5007H8.50065L2.83398 31.1673Z" fill="#4A6DFF"/>
</g>
</g>
</g>
</svg>
